<?xml version="1.0" standalone="no"?>
<!DOCTYPE svg PUBLIC "-//W3C//DTD SVG 20010904//EN"
 "http://www.w3.org/TR/2001/REC-SVG-20010904/DTD/svg10.dtd">
<svg version="1.0" xmlns="http://www.w3.org/2000/svg"
 width="315.000000pt" height="315.000000pt" viewBox="0 0 315.000000 315.000000"
 preserveAspectRatio="xMidYMid meet">
<metadata>
Created by potrace 1.11, written by Peter Selinger 2001-2013
</metadata>
<g transform="translate(0.000000,315.000000) scale(0.100000,-0.100000)"
fill="#000000" stroke="none">
<path d="M1112 2880 c-23 -17 -52 -30 -62 -30 -30 0 -57 -33 -74 -91 -9 -29
-16 -58 -16 -65 0 -19 -20 -28 -57 -26 -32 3 -45 -11 -20 -21 6 -3 2 -6 -10
-7 -38 -4 -41 -5 -49 -12 -9 -10 -68 -10 -77 -1 -4 3 10 17 31 29 23 15 31 23
20 24 -10 0 -18 -4 -18 -10 0 -5 -6 -10 -13 -10 -23 0 -67 -25 -67 -37 0 -14
-13 -17 -45 -13 -78 10 -102 5 -130 -29 -23 -26 -30 -30 -37 -18 -14 27 -46 8
-61 -36 l-13 -41 -90 -22 c-108 -25 -133 -38 -131 -64 1 -22 13 -27 20 -7 2 6
3 -20 1 -59 -1 -42 -9 -84 -19 -104 -19 -37 -15 -45 19 -36 40 10 59 58 52
128 -3 32 -8 63 -10 67 -12 19 98 52 187 56 50 3 58 1 54 -13 -7 -33 21 -71
59 -78 44 -8 81 16 106 69 22 44 56 40 49 -5 -3 -20 18 -5 22 15 4 20 4 19 6
-4 1 -23 -4 -27 -37 -33 -49 -7 -71 -32 -76 -85 -2 -23 -5 -43 -7 -45 -2 -1
-25 -13 -51 -25 -102 -48 -180 -156 -169 -234 1 -4 12 0 25 8 22 15 45 7 28
-9 -4 -4 -8 -12 -8 -17 -1 -5 -2 -13 -3 -18 0 -5 -11 -11 -23 -13 -15 -2 -25
-13 -32 -36 -11 -39 0 -55 20 -28 8 11 14 18 15 15 1 -2 2 -16 3 -30 2 -14 6
-31 9 -36 8 -13 -9 -65 -25 -74 -22 -14 -36 2 -32 38 2 21 0 32 -6 27 -4 -5
-13 -54 -18 -109 -6 -55 -20 -131 -32 -170 -24 -75 -92 -219 -118 -247 -14
-16 -14 -18 1 -18 9 0 19 9 22 20 6 20 16 25 28 14 8 -8 -14 -54 -26 -54 -5 0
-6 -7 -3 -16 8 -21 -11 -45 -30 -37 -8 3 -14 0 -14 -6 0 -6 -15 -28 -34 -48
-55 -63 -80 -123 -51 -123 8 0 15 -4 15 -10 0 -15 58 -42 65 -30 3 6 11 10 16
10 6 0 7 -5 4 -10 -3 -6 6 -15 20 -20 15 -6 29 -18 32 -28 3 -13 29 -24 96
-41 51 -12 103 -27 117 -32 14 -5 63 -18 110 -28 47 -11 128 -31 181 -45 52
-14 106 -28 120 -31 13 -3 139 -35 279 -71 140 -36 266 -68 280 -71 14 -3 64
-16 111 -28 53 -14 92 -20 100 -14 8 5 22 6 33 3 25 -8 106 16 106 31 0 7 11
24 25 39 13 15 29 35 35 46 6 11 17 20 24 20 18 0 28 27 14 36 -7 4 -24 -7
-40 -26 -15 -19 -28 -29 -28 -23 0 6 11 25 25 41 14 17 25 34 25 38 0 5 8 18
17 29 15 19 15 19 9 -7 -5 -22 -3 -26 9 -22 12 5 19 22 14 37 0 1 9 26 20 54
11 29 18 59 15 67 -3 7 2 42 11 77 10 35 18 70 19 77 1 8 8 17 15 21 7 5 14
27 15 49 1 22 8 47 15 56 7 9 11 25 8 36 -3 11 -1 22 3 25 13 8 60 -16 60 -31
0 -7 6 -15 13 -18 9 -3 7 -9 -5 -19 -10 -8 -15 -17 -11 -21 3 -3 1 -16 -5 -29
-14 -28 -42 -142 -42 -171 0 -13 -3 -26 -7 -30 -7 -7 -8 -9 -19 -61 -4 -16
-14 -34 -22 -39 -12 -7 -12 -10 -1 -17 12 -8 11 -12 -3 -23 -10 -7 -18 -18
-18 -24 0 -6 -6 -13 -12 -15 -10 -4 -10 -6 -1 -6 7 -1 3 -11 -10 -25 -27 -29
-107 -141 -107 -150 0 -3 -13 -19 -30 -34 -22 -20 -31 -38 -33 -66 -1 -22 -8
-41 -14 -43 -8 -3 -10 5 -6 24 3 15 5 36 5 47 -1 10 9 27 21 37 12 10 17 18
12 19 -6 0 -16 -5 -21 -10 -14 -14 -50 -22 -104 -23 l-45 0 33 -14 c21 -8 32
-19 29 -27 -6 -14 9 -43 17 -35 3 3 7 18 8 32 1 15 8 27 14 27 19 0 5 -83 -18
-102 -28 -25 -8 -22 54 6 46 21 80 49 154 129 11 12 23 15 38 11 11 -4 30 -8
41 -10 11 -1 38 -5 60 -9 29 -5 36 -4 25 4 -13 9 -12 11 6 11 11 0 30 9 43 21
18 17 21 28 17 67 -9 80 -14 103 -24 115 -17 22 -4 46 56 110 33 34 70 74 81
88 19 25 22 26 67 14 54 -13 147 -4 172 18 10 8 23 12 30 10 6 -3 12 0 12 6 0
6 -6 10 -12 9 -8 -2 -13 8 -13 23 0 14 -6 33 -12 41 -9 10 -9 18 -2 25 8 8 7
17 -1 33 -18 34 -3 69 51 119 76 71 76 70 82 531 2 123 4 136 21 143 19 7 19
8 0 21 -13 10 -24 11 -36 5 -12 -6 -18 -6 -18 1 0 5 -10 10 -22 10 -17 0 -19
3 -10 12 9 9 22 9 55 1 24 -7 54 -9 68 -6 13 3 21 2 17 -2 -4 -4 3 -15 15 -25
25 -21 58 -17 103 11 17 10 38 19 45 19 8 0 26 10 42 23 36 29 50 110 22 131
-10 7 -29 11 -44 9 -21 -4 -23 -2 -9 6 17 11 39 10 72 -4 14 -6 23 -3 33 11
15 21 14 59 -2 60 -30 2 -114 17 -140 24 -35 11 -80 18 -114 19 -22 1 -23 3
-16 44 4 23 8 56 10 72 3 31 15 123 17 134 1 3 -1 23 -5 43 -6 27 -17 42 -42
58 -19 12 -35 26 -35 31 0 5 -5 9 -11 9 -6 0 -9 -6 -6 -14 11 -29 -16 -36 -82
-20 -35 8 -66 12 -68 10 -3 -2 -22 2 -43 9 -21 7 -41 11 -44 8 -3 -4 -6 -2 -6
4 0 12 30 28 45 23 6 -1 35 -4 65 -5 42 -3 48 -2 27 5 -15 5 -61 11 -102 14
-41 2 -80 8 -87 12 -7 4 -41 10 -76 12 -62 3 -65 3 -59 -18 5 -21 3 -22 -26
-15 -18 5 -50 9 -72 9 -22 1 -44 7 -49 15 -6 10 -10 11 -16 1 -6 -10 -15 -9
-39 3 -17 9 -29 11 -26 6 7 -10 -18 -13 -29 -2 -3 4 -19 8 -34 9 -15 1 -38 5
-52 8 -14 2 -50 8 -80 11 -88 10 -105 13 -105 15 0 1 -15 3 -32 4 -18 1 -33
-2 -33 -6 0 -10 -48 -9 -80 3 -19 6 -16 7 15 3 33 -4 42 -1 53 17 7 11 11 24
8 27 -3 3 -6 0 -6 -7 0 -7 -4 -9 -10 -6 -5 3 -10 0 -10 -8 0 -17 -50 -11 -62
7 -5 7 -8 7 -8 -2 0 -9 -7 -11 -20 -7 -19 6 -30 8 -100 19 -56 9 -93 17 -100
21 -3 2 -12 0 -20 -6 -11 -6 -8 -9 13 -9 33 0 34 -7 4 -52 -30 -43 -38 -84
-28 -130 9 -40 -1 -58 -31 -58 -14 0 -17 6 -13 23 3 12 7 44 9 70 2 26 10 54
16 62 7 8 9 15 5 15 -4 0 3 9 16 19 l24 19 -28 7 c-21 6 -26 12 -22 25 5 16
-2 17 -72 15 -48 -2 -70 0 -58 5 13 6 15 9 5 9 -8 1 1 9 20 20 19 10 39 16 44
13 5 -3 6 0 2 6 -11 18 -27 14 -74 -18z m388 -84 c0 -3 -4 -8 -10 -11 -5 -3
-10 -1 -10 4 0 6 5 11 10 11 6 0 10 -2 10 -4z m-840 -348 c0 -5 -9 -4 -20 2
-11 6 -20 12 -20 14 0 2 9 2 20 -1 11 -3 20 -9 20 -15z m1508 -780 c16 -2 16
-18 -1 -18 -17 0 -21 -27 -14 -80 2 -14 0 -34 -4 -45 -10 -30 -32 -203 -31
-247 1 -21 -14 -24 -20 -5 -6 18 -2 72 6 86 6 9 1 10 -18 5 -44 -11 -59 11
-51 75 9 70 11 76 41 90 22 10 26 8 35 -17 10 -25 12 -26 19 -7 14 34 12 55
-5 48 -24 -9 -44 25 -35 58 5 15 6 30 3 33 -13 12 21 37 41 31 12 -4 27 -7 34
-7z m322 -518 c0 -5 -4 -10 -10 -10 -5 0 -10 -15 -10 -34 0 -29 3 -33 19 -29
16 4 19 1 14 -16 -6 -22 -18 -34 -46 -44 -16 -6 -17 -1 -14 49 4 49 2 57 -14
61 -11 3 -19 10 -19 15 0 5 8 7 18 4 9 -3 24 -1 32 4 19 13 30 13 30 0z"/>
<path d="M1278 2883 c7 -3 16 -2 19 1 4 3 -2 6 -13 5 -11 0 -14 -3 -6 -6z"/>
<path d="M1160 2870 c-20 -12 -5 -24 16 -12 9 5 12 12 7 15 -5 3 -15 2 -23 -3z"/>
<path d="M1328 2873 c7 -3 16 -2 19 1 4 3 -2 6 -13 5 -11 0 -14 -3 -6 -6z"/>
<path d="M1268 2863 c7 -3 16 -2 19 1 4 3 -2 6 -13 5 -11 0 -14 -3 -6 -6z"/>
<path d="M1448 2853 c7 -3 16 -2 19 1 4 3 -2 6 -13 5 -11 0 -14 -3 -6 -6z"/>
<path d="M1508 2843 c7 -3 16 -2 19 1 4 3 -2 6 -13 5 -11 0 -14 -3 -6 -6z"/>
<path d="M1626 2837 c3 -10 9 -15 12 -12 3 3 0 11 -7 18 -10 9 -11 8 -5 -6z"/>
<path d="M1666 2822 c-3 -5 1 -9 9 -9 8 0 12 4 9 9 -3 4 -7 8 -9 8 -2 0 -6 -4
-9 -8z"/>
<path d="M1747 2800 c3 -11 9 -17 15 -14 5 3 4 12 -3 20 -16 19 -18 18 -12 -6z"/>
<path d="M745 2791 c-3 -2 -5 -19 -5 -37 0 -36 22 -64 49 -64 27 0 33 -12 14
-32 -13 -15 -14 -18 -1 -18 8 0 23 6 33 14 18 13 18 14 -4 50 -13 20 -20 36
-16 36 3 0 -2 13 -11 29 -15 26 -45 37 -59 22z"/>
<path d="M1868 2793 c7 -3 16 -2 19 1 4 3 -2 6 -13 5 -11 0 -14 -3 -6 -6z"/>
<path d="M1910 2779 c0 -5 -6 -7 -12 -3 -10 5 -10 4 0 -7 10 -11 15 -10 29 4
16 16 16 17 0 17 -9 0 -17 -5 -17 -11z"/>
<path d="M1974 2778 c-7 -11 48 -9 66 2 10 6 3 8 -24 7 -21 -1 -40 -5 -42 -9z"/>
<path d="M2053 2763 c9 -2 17 -12 17 -21 0 -12 3 -13 12 -4 7 7 23 13 38 13
24 1 23 2 -5 9 -16 4 -41 8 -55 8 -16 0 -18 -2 -7 -5z"/>
<path d="M2159 2749 c-10 -6 -7 -9 14 -9 29 0 35 5 14 13 -8 3 -20 1 -28 -4z"/>
<path d="M2590 2660 c0 -5 9 -10 21 -10 11 0 17 5 14 10 -3 6 -13 10 -21 10
-8 0 -14 -4 -14 -10z"/>
<path d="M155 1243 c-38 -51 -70 -88 -92 -106 -12 -9 -31 -33 -44 -53 -21 -35
-22 -58 -5 -139 3 -11 5 -27 5 -36 2 -48 135 -107 321 -144 3 0 21 -6 40 -13
19 -6 46 -13 60 -16 31 -6 34 -7 215 -56 145 -39 161 -43 215 -54 14 -3 61
-17 105 -30 44 -13 181 -49 305 -81 124 -31 251 -63 283 -72 59 -17 78 -13 59
10 -8 9 -9 24 -2 47 11 37 6 50 -18 50 -9 0 -35 5 -56 11 -27 7 -35 13 -26 19
14 9 -9 16 -115 40 -61 14 -80 19 -102 25 -83 22 -214 54 -238 58 -16 3 -42
10 -56 15 -14 6 -41 13 -60 16 -19 3 -63 14 -99 24 -36 10 -101 28 -145 40
-44 11 -163 43 -265 71 -102 27 -222 60 -267 71 -101 27 -159 70 -148 110 7
29 68 100 85 100 6 0 9 4 6 8 -3 5 5 19 18 33 32 35 60 79 50 79 -5 0 -18 -12
-29 -27z"/>
<path d="M1555 580 c-3 -5 1 -10 10 -10 9 0 13 5 10 10 -3 6 -8 10 -10 10 -2
0 -7 -4 -10 -10z"/>
<path d="M1595 570 c-3 -5 1 -10 10 -10 9 0 13 5 10 10 -3 6 -8 10 -10 10 -2
0 -7 -4 -10 -10z"/>
<path d="M1636 481 c2 -36 11 -51 29 -51 12 0 12 4 0 26 -7 15 -11 33 -8 40 3
8 -1 14 -9 14 -9 0 -13 -10 -12 -29z"/>
</g>
</svg>
